<svg fill="white" xmlns="http://www.w3.org/2000/svg" viewBox="0 0 383.5 383.18"><g id="Layer_2" data-name="Layer 2"><g id="Layer_1-2" data-name="Layer 1"><path d="M.06,243.14c2.11-3.06,5-3.85,8.67-3.81,17.33.15,34.67.06,52,.06,10.11,0,10.35.22,11.52,10.51,8.37-5.28,15.39-11.63,18.22-21.07,7.78-26,15.1-52.13,22.6-78.2,1.85-6.43,4-7.8,10.59-6.82,19,2.81,31.21,17.44,32,38.31.3,7.78-1.57,15.35-2.32,23-.61,6.32-1.32,12.65-2.46,18.9-.59,3.19.51,3.42,3.14,3.41q36.66-.11,73.32,0c12.17,0,21.87,8.14,23.82,20.12,1.51,9.29-1.92,16.93-9.3,22.64-1.8,1.39-1.89,2.12-.69,4C248.06,285,245.91,298,236,306c-1.6,1.29-2.17,1.93-.85,4,7,11,4.82,23.84-5.31,32.11-1.19,1-2.15,1.4-.93,3.38,9.46,15.42,2.85,32-14.56,37a3.71,3.71,0,0,0-.93.56H104.86c-10.15-3.88-20.77-6.19-31.09-9.49-1.67-.53-2,.31-1.83,1.63.48,3.48-1.2,5.87-3.76,7.86-21.83,0-43.67,0-65.5.07-2.23,0-2.68-.45-2.68-2.69Q.12,311.82.06,243.14ZM160,371.14c16.34,0,32.68,0,49,0,7.28,0,12.62-5.19,12.6-12S216.25,347.25,209,347.2s-14.47,0-21.71,0c-4.75,0-7.47-2.2-7.51-5.93s2.7-6,7.4-6c9.22,0,18.45,0,27.68,0,7.36,0,12.7-5,12.78-11.82.09-6.95-5.31-12.07-12.85-12.12-7.11,0-14.22,0-21.33,0-5,0-7.78-2.28-7.69-6.12s2.8-5.83,7.59-5.85c9.1,0,18.21,0,27.31,0,7.59,0,13-5.08,13-12s-5.43-11.89-13.05-11.93q-11,0-22.07,0c-3.25,0-5.58-1.33-6.55-4.48-1.19-3.89,1.83-7.44,6.46-7.48,9.6-.07,19.2,0,28.81,0a12,12,0,0,0,11.63-7.81c3-8.11-2.93-16.1-12.11-16.11-27.19,0-54.38,0-81.57,0-5.47,0-7.87-2.61-7.22-7.94,1.05-8.65,2.32-17.29,3.29-26,.84-7.54,2.73-15,2.42-22.64-.45-11.39-4.37-20.94-15.87-25.71-2.68-1.12-3.76-.66-4.6,2.34-6.74,24.1-13.3,48.26-20.71,72.15a45.93,45.93,0,0,1-28,30.16c-2,.79-2.59,1.63-2.58,3.7q.09,46.22,0,92.42c0,2.17.71,3,2.73,3.56,10.44,2.88,20.84,5.89,31.25,8.89a20.87,20.87,0,0,0,5.88.81Q135.86,371.1,160,371.14Zm-148-60c0,18.83.05,37.66-.06,56.48,0,2.7.53,3.61,3.44,3.57q20.57-.25,41.14,0c2.9,0,3.45-.85,3.44-3.56q-.12-56.49,0-113c0-2.54-.53-3.4-3.24-3.37q-20.76.21-41.53,0c-2.7,0-3.26.82-3.25,3.36C12.09,273.5,12,292.33,12,311.16Z"/><path d="M236.38,167.54c6.86,0,13.72,0,20.58,0,7.26-.07,12.6-5.23,12.56-12s-5.38-11.79-12.7-11.91-14.69.45-22-1.3a48,48,0,0,1-37.05-44.77c-1-20.85,12.52-40.48,32.82-47.21,2.35-.79,3.11-1.75,3-4.14-.18-5-.08-10,0-15,0-5.17,2.13-7.33,7.21-7.36q10.67-.07,21.33,0c5.31,0,7.35,2.13,7.38,7.57,0,4.61.09,9.23,0,13.84-.05,1.93.51,2.62,2.51,2.57,5-.13,10-.08,15,0,10.52.1,18.51,7.91,18.47,18s-8,17.84-18.62,17.88c-13.71.06-27.43-.05-41.15,0a11.87,11.87,0,0,0-12.06,12.12,12,12,0,0,0,12.06,11.78c4.12.1,8.24,0,12.35,0a46.79,46.79,0,0,1,31.63,12.4c27,24.56,17.89,68.87-16.67,80.68-2.73.94-3.68,2.06-3.53,4.94.27,5,.13,10,.06,15-.07,4.43-2.29,6.7-6.7,6.74q-11.22.12-22.45,0c-4.44-.05-6.67-2.28-6.74-6.69-.08-4.86-.13-9.73,0-14.59.07-2.18-.69-2.75-2.77-2.7-5,.13-10,.1-15,0-10.28-.14-18.2-7.95-18.23-17.9a17.94,17.94,0,0,1,18.11-18C222.66,167.47,229.52,167.54,236.38,167.54Zm1.42,12H218q-8.19,0-8.3,5.89c-.06,4,2.81,6.08,8.48,6.09q9.74,0,19.45,0c6.06,0,7.95,2,8,8.12,0,2.25,0,4.49,0,6.74,0,9.47,0,9.38,9.37,9.15,2.23-.05,2.71-.81,2.65-2.83-.13-4.36,0-8.72,0-13.09,0-6.26,1.1-7.63,7.1-8.89,15.9-3.33,27.19-16.56,28.41-33.3,1.13-15.43-8.84-30.26-23.8-35.66-5.65-2-11.45-2.16-17.33-2.12-4.47,0-9,.33-13.36-1a24.15,24.15,0,0,1-16.82-25.67c1.47-11.79,11.2-20.93,23-21.12,13.47-.21,26.93-.06,40.4-.07,5.44,0,8.24-2,8.31-5.89s-2.8-6.08-8.48-6.08c-6.49,0-13,0-19.45,0-6,0-7.95-2-8-8.12,0-2.24,0-4.49,0-6.73,0-9.47,0-9.39-9.37-9.16-2.23.06-2.7.81-2.65,2.83.13,4.61.06,9.23,0,13.84,0,5.32-1.43,7-6.74,8.09A35.9,35.9,0,0,0,210,95c-.45,16.52,10.82,31.21,27.12,35.49,6.77,1.78,13.64,1,20.47,1.14,13.33.28,23.84,10.65,23.94,23.74a23.94,23.94,0,0,1-23.87,24.16C251,179.59,244.41,179.51,237.8,179.51Z"/><path d="M383.2,130.23c4.42,59.82-42.1,117-100.33,129.62a53.64,53.64,0,0,1-6.6,1.25c-4,.36-6.89-1.83-7.3-5.3-.37-3.21,1.86-5.87,5.71-6.65a103.26,103.26,0,0,0,19.71-5.71c44.82-18.82,71.13-52.23,76.16-100.64,6.61-63.72-38.38-120.21-101.82-129.62C203.62,3.52,142.88,48.72,133.15,114.06a117.61,117.61,0,0,0-1.35,16c0,4.76-2.25,7.47-6,7.49s-6-2.83-6-7.81c.44-62.52,46.52-117.57,108.5-127.57C284.91-6.94,330.28,12.6,363.23,59.69c10.87,15.54,17.23,33.16,19.82,51.92C384,118.22,383.2,125.06,383.2,130.23Z"/><path d="M90,101.63c-3.51.09-6-2.53-6.13-6.55-.22-5.23-.22-5.23-5.2-5.39C74.59,89.55,72,87.26,72,83.75s2.56-5.89,6.65-6a21.17,21.17,0,0,1,3,0c1.78.18,2.49-.52,2.34-2.32a22.45,22.45,0,0,1,0-4.1,5.92,5.92,0,0,1,6-5.55,6,6,0,0,1,5.93,5.61c.27,2-1,4.77.7,6,1.33,1,3.85.21,5.81.42a5.93,5.93,0,0,1,5.46,6,6.05,6.05,0,0,1-5.71,5.84c-2,.23-4.4-.84-5.75.5s-.29,3.8-.51,5.75A6.05,6.05,0,0,1,90,101.63Z"/><path d="M311.15,323.21a5.88,5.88,0,0,1-5.52-4.75,6.34,6.34,0,0,1-.14-2.6c.59-3.64-.62-5.37-4.52-4.63a6.35,6.35,0,0,1-2.6-.12c-3-.77-4.81-2.69-4.81-5.83s1.8-5.06,4.78-5.86a8.82,8.82,0,0,1,1.86-.14c5.07-.18,5.07-.18,5.27-5.33.16-4.07,2.53-6.67,6-6.62s5.79,2.65,5.92,6.77a15.21,15.21,0,0,1,0,2.24c-.29,2.19.38,3.3,2.81,3a14.56,14.56,0,0,1,3.73,0,5.84,5.84,0,0,1,5.39,6.08c-.22,3.29-2.12,5.18-5.35,5.77-.12,0-.25,0-.37,0-1.95.26-4.41-.86-5.74.52s-.26,3.81-.49,5.76A6.15,6.15,0,0,1,311.15,323.21Z"/></g></g></svg>