<svg fill="white" xmlns="http://www.w3.org/2000/svg" viewBox="0 0 380.21 383.29"><g id="Layer_2" data-name="Layer 2"><g id="Layer_1-2" data-name="Layer 1"><path d="M3.72,383.29c-4.77-3.87-4.94-6.65-.59-11q21.93-22,43.89-43.9a16,16,0,0,1,2.48-2.25,5.2,5.2,0,0,1,7.12.77,5.14,5.14,0,0,1,.63,6.85,18.08,18.08,0,0,1-2.51,2.75Q33.07,358.2,11.37,379.87c-1.23,1.22-2.6,2.29-3.91,3.42Z"/><path d="M372.75,383.29c-1.3-1.14-2.68-2.2-3.9-3.42q-21.84-21.8-43.64-43.62a23.09,23.09,0,0,1-1.8-1.9c-2-2.51-1.94-5.06.17-7.44s5.16-2.4,7.72-.33a37.9,37.9,0,0,1,2.95,2.86q21.44,21.42,42.84,42.84c4.34,4.34,4.16,7.14-.6,11Z"/><path d="M78.58,383.29c-3.53-2.36-4.06-5.45-2.84-9.4,2.06-6.66,3.73-13.43,5.64-20.14,1.15-4,3.67-5.71,7.05-4.91s4.76,3.73,3.72,7.7c-1.82,7-3.82,13.93-5.59,20.92a8.84,8.84,0,0,1-4.24,5.83Z"/><path d="M297.9,383.29a8.79,8.79,0,0,1-4.24-5.82c-1.75-6.88-3.71-13.7-5.52-20.56-1.13-4.27.27-7.27,3.64-8.07s6,1,7.18,5.26c1.86,6.59,3.49,13.24,5.51,19.78,1.22,3.95.69,7.05-2.83,9.41Z"/><path d="M329.61,131.14a39.35,39.35,0,0,1-1.47,10.33c-2.66,9.49-.35,17.66,6.6,24.66,14.92,15,15,36,.07,51-7,7-9.23,15.1-6.74,24.64,5.44,20.78-5,38.8-25.66,44.36-9.19,2.47-15.13,8.28-17.74,17.46-6.1,21.45-23.3,31.42-44.81,26-9.24-2.35-17.21-.16-24,6.55-15.45,15.25-36,15.23-51.54-.05-6.81-6.7-14.79-8.85-24-6.49C119,335,101.49,324.9,95.63,303.88c-2.55-9.17-8.37-15.06-17.54-17.69C56.63,280,46.83,263,52.25,241.34c2.27-9.09.19-17-6.38-23.72-15.47-15.83-15.5-36.07-.08-51.82,6.68-6.83,8.77-14.83,6.39-24.06-5.4-21,4.7-38.7,25.45-44.47,9.48-2.63,15.47-8.58,18.07-18.08,5.62-20.52,23.61-31,44.11-25.54,9.52,2.51,17.68.38,24.69-6.55,15.24-15.07,36.05-15,51.28,0,6.89,6.84,15,9,24.34,6.57,20.92-5.4,38.71,4.83,44.41,25.55,2.66,9.65,8.81,15.61,18.51,18.09C319,101.44,329.61,115,329.61,131.14Zm-11.18,0c0-11.18-7.19-20-19.05-23.22-13.25-3.63-21.82-12.06-25.48-25.3-4.18-15.15-15.94-22-31.14-18.08-13.32,3.47-24.89.3-34.69-9.29-11.25-11-24.73-11-36,.08-9.69,9.49-21.18,12.66-34.36,9.26-15.47-4-27.12,2.76-31.42,18.13-3.66,13.07-12.11,21.51-25.2,25.13C65.91,112.08,59,123.83,63,139c3.47,13.32.31,24.89-9.28,34.7-11,11.24-11,24.69.07,36,9.48,9.7,12.66,21.18,9.27,34.36-4,15.48,2.79,27.18,18.13,31.43,12.94,3.58,21.37,11.94,25,24.83,4.47,15.72,15.88,22.41,31.6,18.37,12.87-3.3,24.2-.28,33.78,8.87,12.2,11.66,24.89,11.6,37.1-.1,9.46-9.07,20.73-12.06,33.45-8.84,16.08,4.06,27.33-2.48,31.87-18.41,3.62-12.75,12-21.07,24.75-24.66,15.69-4.41,22.41-15.89,18.36-31.6-3.32-12.88-.66-24.59,8.95-33.69,11.22-10.6,11-26.86-.08-37.29-9.52-8.95-12.08-20.6-8.95-33.35A35.18,35.18,0,0,0,318.43,131.16Z"/><path d="M58.24,52.77a5.58,5.58,0,0,1-7.78,4.91,9.32,9.32,0,0,1-2.67-2Q25.16,33.13,2.57,10.5A7.93,7.93,0,0,1,.28,7.14,5.23,5.23,0,0,1,2.07,1.43,4.92,4.92,0,0,1,8,.66,13.59,13.59,0,0,1,10.86,3Q33.11,25.14,55.31,47.36C56.84,48.89,58.23,50.44,58.24,52.77Z"/><path d="M327.13,58.24c-3.41.1-6.29-4.2-4.58-7.85A8.86,8.86,0,0,1,324.31,48Q347,25.26,369.77,2.52a11,11,0,0,1,1.39-1.25c2.46-1.77,5-1.72,7.15.33S380.79,6.38,379,9a15.26,15.26,0,0,1-1.77,1.92Q355,33.16,332.8,55.37A8,8,0,0,1,327.13,58.24Z"/><path d="M92.73,28.37c-.31,3.27-1.45,5.39-4.25,6.07s-5.58-.17-6.46-3c-2.53-8.33-4.86-16.73-6.89-25.19-.68-2.84,1.18-5.08,4-5.91s5.41.16,6.24,2.75C88.12,11.58,90.41,20.24,92.73,28.37Z"/><path d="M298.92.07c4.17,0,7,3.2,6.08,6.82q-3,11.94-6.47,23.77a5.55,5.55,0,1,1-10.65-3.14c2-7.71,4.15-15.38,6.26-23.06A5.59,5.59,0,0,1,298.92.07Z"/><path d="M5.4,308.74a5.19,5.19,0,0,1-5.2-4.45c-.62-2.79.58-5.27,3.18-6.06q12.48-3.8,25.18-6.89c2.7-.67,4.9,1,5.77,3.65a5.31,5.31,0,0,1-2.59,6.71C30.56,302.39,7.25,308.71,5.4,308.74Z"/><path d="M34.64,86.64A5.35,5.35,0,0,1,28.05,92C20,89.94,11.94,87.71,4,85.34,1,84.46-.4,82.05.22,78.91a5.2,5.2,0,0,1,6.5-4.14c8.08,2,16.11,4.2,24.12,6.49C33.36,82,34.64,84,34.64,86.64Z"/><path d="M374.4,308.76c-.81-.14-1.82-.24-2.77-.5-7.08-1.92-14.16-3.84-21.22-5.84-3.86-1.09-5.58-3.89-4.62-7.23.87-3.07,3.83-4.56,7.49-3.58,7.57,2,15.12,4.09,22.65,6.25,3,.86,4.61,3.1,4.11,6.22C379.57,307,377.6,308.6,374.4,308.76Z"/><path d="M380.17,80.34a5.52,5.52,0,0,1-4.23,5.15c-7.78,2.18-15.56,4.39-23.38,6.42a5.58,5.58,0,1,1-2.87-10.79c7.64-2.2,15.32-4.31,23-6.23C376.81,73.87,380.06,76.3,380.17,80.34Z"/><path d="M67.34,192.2c.17-60.77,43.57-111.93,102.38-121.67,2-.33,3.94-.65,5.93-.81,3.55-.28,6.06,1.59,6.52,4.72s-1.6,5.93-5.27,6.41a119,119,0,0,0-32.66,9C101.31,108.72,74.14,155.41,79.08,202c5.56,52.45,43.53,92.21,95.73,100.24,55.63,8.57,111.29-29.52,123.82-84.74,14.3-63-24.87-123.14-88.28-135.53-2.08-.41-4.18-.67-6.28-1-4.31-.61-6.71-3-6.28-6.35s3.32-5.36,7.53-4.81c18.71,2.42,36.24,8.34,51.82,19,38.33,26.21,57.22,62.82,55.5,109.15-2.24,60.37-50.87,110.63-111,115.91-62.8,5.51-119-36-131.86-97.38A110.5,110.5,0,0,1,67.34,192.2Z"/><path d="M171,257.8c-6.91,0-13.11-2.12-18-7-13.86-13.65-27.68-27.36-41.3-41.25-6.72-6.85-6.55-17,.07-24,5.16-5.41,10.47-10.7,15.86-15.89,7.17-6.92,17.37-6.9,24.52,0,5.91,5.73,11.78,11.51,17.43,17.5,2.12,2.24,3.23,1.86,5.2-.12q26.35-26.56,52.87-53c9-9,18.66-9,27.77,0,4.16,4.13,8.34,8.24,12.42,12.45,7.43,7.7,7.51,17.82,0,25.36q-22.26,22.45-44.7,44.72c-2.93,2.93-5.77,3.38-8.28,1.49-2.89-2.17-3.06-5.82-.22-8.79,3.54-3.69,7.21-7.25,10.82-10.87q16.68-16.66,33.34-33.34c4.49-4.5,4.49-7.17,0-11.7-3.95-4-7.9-8-11.9-11.9s-7-3.88-10.9,0q-29,29-57.95,57.93c-4.84,4.84-7.05,4.86-11.81.1-7-7-13.92-13.95-20.91-20.89-4-4-6.9-4-10.89-.09-4.61,4.56-9.21,9.13-13.75,13.76-3.6,3.65-3.63,6.71,0,10.34q19.39,19.49,38.9,38.88c6.72,6.66,15.9,6.61,22.72,0,4.3-4.16,8.45-8.48,12.73-12.67,2.88-2.83,6.23-3.11,8.59-.83s2.23,5.75-.56,8.6c-4.54,4.63-9.09,9.25-13.78,13.73A25.76,25.76,0,0,1,171,257.8Z"/></g></g></svg>