<svg fill="white" xmlns="http://www.w3.org/2000/svg" viewBox="0 0 383.34 383.45"><g id="Layer_2" data-name="Layer 2"><g id="Layer_1-2" data-name="Layer 1"><path d="M207.35,383.45c-3-2.12-3.85-5-3.82-8.68.16-16.58,0-33.17.09-49.76.16-28,11.44-50.33,34.08-66.87q25.67-18.75,51.36-37.46c1.25-.9,1.14-1.61.74-2.76-1.13-3.3-2.24-6.61-3.24-9.95-3.6-12.1,2.55-23.88,14.68-27.93,1.63-.54,2.38-1,2.52-2.94,1.17-16.24,14.25-25.38,29.86-21l1.57.43c.28-5.86,1.83-11.15,5.51-15.68a23.93,23.93,0,0,1,26-7.7c9.56,3.11,16.46,11.8,16.51,21.81.15,30.93.33,61.86-.08,92.79-.19,13.59-6.75,24.46-17.41,32.93-19,15.12-37.8,30.6-57,45.45-10.66,8.23-16,18.34-15.27,31.83.32,5.59-.13,11.23.12,16.83.17,3.66-.77,6.55-3.81,8.68ZM371.27,201.76q0-22.65,0-45.28c0-5.41-2.44-9.4-7.35-11.58-7.91-3.51-16.54,2.38-16.58,11.36-.09,19.45,0,38.91,0,58.37a19,19,0,0,1-7.94,16.11c-3.29,2.47-6.52,5-9.9,7.36a4.86,4.86,0,0,0-2.33,4.62c.11,7.25-2.45,13.7-8,18.22-13.17,10.69-26.62,21-40.05,31.37a5.76,5.76,0,0,1-8.75-1.64c-1.73-2.89-1-5.84,2.34-8.42Q290.8,268.09,309,254c6.79-5.31,8.31-13.23,3.8-19.36-4.65-6.33-12.95-7.29-19.89-2.2-16.79,12.3-33.67,24.51-50.29,37-15.06,11.34-24.18,26.54-26.23,45.29-2,18.13-.38,36.39-.8,54.59-.05,2,.94,2.16,2.52,2.16q30.5,0,61,0c2.11,0,2.46-.85,2.42-2.65-.09-4.37,0-8.74,0-13.1-.34-15.58,5.81-27.9,18-37.55,19.78-15.6,39.33-31.48,59-47.18,8.7-6.94,12.84-15.91,12.78-27C371.22,230,371.27,215.85,371.27,201.76Zm-35.92-7.09q0-9.53,0-19.06,0-8-8-8.67c-8.11-.71-13.62,6.56-11,14.71,4,12.31,8.1,24.57,12.25,36.83.44,1.29.22,3.56,1.91,3.57,1.44,0,2.74-1.57,3.68-2.93a8.34,8.34,0,0,0,1.12-5Q335.32,204.39,335.35,194.67ZM317.1,221.94c-3.11-9.36-5.91-17.81-8.71-26.25-.36-1.06-.73-2.11-1.05-3.18-.43-1.43-1.29-1.46-2.58-1.09a10.1,10.1,0,0,0-6.94,12c1,4.08,2.54,8,3.79,12.05.34,1.07.84,1.73,2.05,1.77C308.25,217.4,312.33,219.16,317.1,221.94Z"/><path d="M0,151.4c.91-.53.7-1.53,1-2.33,3.63-11.22,14.26-18.31,25.56-17a24.12,24.12,0,0,1,21.33,22.09l.23,2.4c7.77-2.62,15.14-2.33,21.85,2.42a21.45,21.45,0,0,1,9.57,17.73c0,1.89.51,2.72,2.47,3.36,12.43,4.1,18.45,16.08,14.55,28.62-1,3.09-1.94,6.18-3.08,9.21-.54,1.45-.19,2.08,1,3,18.26,13.25,36.79,26.16,54.59,40,19.85,15.45,29.93,36.36,30.48,61.51.38,17.46,0,34.93.16,52.39,0,3.65-.78,6.55-3.81,8.68H93.57c-3-2.12-3.95-5-3.81-8.67.24-6.47,0-13,.08-19.44.18-11.24-4.09-20.24-12.91-27.26-19.8-15.73-39.47-31.63-59.28-47.36A45.39,45.39,0,0,1,1.73,257.78C1.06,255.54.57,253.23,0,251Zm35.93,35c0-9.85,0-19.7,0-29.56a12.88,12.88,0,0,0-2.22-7.77,11.76,11.76,0,0,0-13.18-4.6c-5.41,1.68-8.56,6.06-8.56,12.19,0,28.07.29,56.14-.14,84.2-.21,13.75,4.69,24.09,15.59,32.49,19.27,14.83,38,30.32,57.06,45.45,9.76,7.75,15.77,17.66,17,30.06.63,6.43.33,13,.26,19.44,0,2.26.35,3.26,3,3.24q29.93-.16,59.87,0c2.46,0,3.12-.69,3.11-3.12-.12-15.34.24-30.7-.15-46-.56-22-9.8-39.86-27.31-53.3-5.44-4.18-11-8.14-16.56-12.2-11.36-8.35-22.68-16.74-34.08-25A13.08,13.08,0,0,0,74.51,231c-4.9,2.83-6.92,7.34-6.44,12.95.36,4.12,2.55,7.17,5.75,9.65q18.48,14.33,36.9,28.71c3.34,2.61,4,5.93,1.87,8.79A5.77,5.77,0,0,1,104,292.2c-13.31-10.3-26.61-20.62-39.77-31.11-4.44-3.54-7.8-8.57-7.64-14.08.2-6.86-3.69-9.91-8.37-13-1.45-1-2.8-2.08-4.2-3.12a19,19,0,0,1-8.11-16.39C36,205.11,35.93,195.75,35.93,186.39Zm12,7.87c0,6.86,0,13.71,0,20.56a7.61,7.61,0,0,0,3.5,6.62c1.36,1,2,1,2.57-.78,4.38-13.36,9-26.64,13.22-40A10.44,10.44,0,0,0,61,167.68c-6.91-2.9-13.13,1.19-13.13,8.64Zm18.91,27.1c2.08-.92,4.07-1.89,6.12-2.71a18.71,18.71,0,0,1,6.53-1.39,2,2,0,0,0,2.13-1.66c1.28-4.14,2.86-8.21,3.88-12.42a10,10,0,0,0-6.17-11.45c-2-.87-3-.61-3.76,1.7-2.49,7.93-5.23,15.78-7.8,23.68C67.31,218.46,66.35,219.76,66.82,221.36Z"/><path d="M197.57,233.77c-19.89-.24-39-3.66-55.9-14.88-18.83-12.49-28.91-30.59-32.34-52.5-5-31.86,2.37-61.68,16.15-90.19a243.93,243.93,0,0,1,46-64.63C185.85-3.11,208-4.07,222.13,10.11c27.49,27.6,48.63,59.31,59.48,97.16,6.06,21.15,8.21,42.68,3.29,64.32-7.66,33.67-29.5,52.9-62.79,59.84A119.44,119.44,0,0,1,197.57,233.77Zm-.2-12a115.71,115.71,0,0,0,23.41-2.29c28.58-5.76,47.22-24.18,52.89-52.64,3.45-17.31,2-34.56-2.27-51.51C261.8,77.56,241,46.3,214,18.85,204.45,9.1,189.68,10,179.89,20a239.11,239.11,0,0,0-39.51,53.3c-14.59,27.07-23.3,55.63-19.82,86.77,2.89,25.91,15.46,45.16,40.22,55.27C172.49,220.15,184.82,221.68,197.37,221.78Z"/><path d="M36,56.81c.39-15,7.27-30.1,17.65-43.81a75.73,75.73,0,0,1,6.8-7.94c6.08-6,16.47-6.56,22.35-.43C97.7,20.21,107.82,38.28,107.69,60.5c-.16,25.68-18.38,37.68-40.89,35.16C46.82,93.42,35.8,80,36,56.81Zm11.91,2.3C48,66.63,49,74,55.23,78.8c8.8,6.81,18.83,6.79,28.68,2.84C93,78,95.64,69.88,95.73,60.93c.2-18.7-8.58-33.63-20.53-47.09-2.13-2.4-4.64-2.22-6.81.11-1.77,1.91-3.45,3.93-5,6C54.49,31.58,48.35,44.28,47.87,59.11Z"/><path d="M287.46,56.94c.38-15.16,7.31-30.34,17.81-44.13a74.86,74.86,0,0,1,6.56-7.66c6.05-6.06,16.45-6.7,22.34-.6,15,15.53,25.11,33.6,25,55.82-.11,26.22-18.9,37.91-41.13,35.25C298.23,93.25,287.35,80,287.46,56.94Zm11.91,2.39c.16,7.24,1.07,14.57,7.33,19.43,8.79,6.85,18.81,6.83,28.67,2.9C344.47,78,347.14,69.93,347.24,61c.2-18.85-8.64-33.88-20.77-47.35-2-2.26-4.52-1.89-6.53.28-1.78,1.92-3.45,3.93-5,6C306,31.53,299.88,44.23,299.37,59.33Z"/><path d="M197.59,197.81c-5.61,0-11.22,0-16.83,0-4.88-.05-7.06-2.22-7.08-7.12-.05-8.47-.16-17,.06-25.43.07-2.93-.9-3.49-3.58-3.43-8.36.17-16.71.09-25.07.05-5.16,0-7.33-2.14-7.35-7.22q-.06-16.65,0-33.3c0-5.3,2.14-7.35,7.58-7.37,8.48,0,17-.08,25.44,0,2.25,0,3-.53,3-2.89-.15-8.6-.09-17.21-.05-25.81,0-5.12,2.16-7.25,7.31-7.26q16.65-.06,33.29,0c5.13,0,7.26,2.15,7.29,7.29,0,8.47.12,17-.06,25.43-.06,2.71.83,3.3,3.37,3.25,8.36-.15,16.71-.08,25.07,0,5.41,0,7.53,2.08,7.55,7.4q0,16.47,0,32.92c0,5.54-2.11,7.56-7.77,7.57-8.35,0-16.71.09-25.06,0-2.4,0-3.2.58-3.15,3.08.15,8.48.08,17,.05,25.44,0,5.35-2.13,7.42-7.51,7.45S203.08,197.81,197.59,197.81Zm-12-91.71c0,4.11,0,8.22,0,12.34,0,5.37-2.11,7.48-7.45,7.5-8.47,0-17,.1-25.42,0-2.47,0-3.18.7-3.11,3.13.17,5.73.2,11.47,0,17.2-.1,2.82.55,3.85,3.62,3.76,8.22-.23,16.45-.09,24.67-.07,5.63,0,7.67,2,7.69,7.64,0,8.47.09,16.95,0,25.42,0,2.33.65,3,2.94,2.91,5.86-.15,11.72-.19,17.57,0,2.7.09,3.65-.52,3.58-3.44-.22-8.34-.1-16.7-.07-25.05,0-5.38,2.09-7.48,7.44-7.5,8.6,0,17.2-.07,25.8,0,2.13,0,2.77-.62,2.72-2.74-.12-6.1-.18-12.22,0-18.32.09-2.65-1-3-3.24-3-8.35.11-16.7.06-25.05,0-5.63,0-7.68-2-7.69-7.63,0-8.47-.09-17,0-25.42,0-2.32-.63-3-2.93-2.92q-9,.23-17.94,0c-2.34,0-3.32.47-3.19,3C185.79,97.37,185.64,101.74,185.64,106.1Z"/><path d="M169.84,65.39a7.78,7.78,0,0,1-1.57,5,210.74,210.74,0,0,0-15.58,28.92c-1.76,4-5.06,5.39-8.41,3.84-3.1-1.44-4.18-4.82-2.55-8.63A209.64,209.64,0,0,1,158.8,63a6,6,0,0,1,11,2.35Z"/><path d="M176.88,54.06c-4.12.12-7.45-4.25-5.62-7.92a39.12,39.12,0,0,1,9.55-11.75c2.21-1.93,4.95-1.48,7.14.48,2,1.83,2.93,4.29,1.45,6.71A59.92,59.92,0,0,1,180,53,4.37,4.37,0,0,1,176.88,54.06Z"/><path d="M55.51,57.68A41.66,41.66,0,0,1,59,43.19c1.53-3.4,4.48-4.74,7.55-3.6,3.28,1.22,4.74,4.25,3.48,7.93a41.76,41.76,0,0,0-2.48,10.11c-.4,5,1,7,5.83,8.49,3.9,1.2,5.86,4.21,4.9,7.5s-4.12,5-8,4.06C60.75,75.44,55.45,68.5,55.51,57.68Z"/><path d="M307,57.84a41.66,41.66,0,0,1,3.39-14.49c1.59-3.59,4.63-5,7.81-3.69s4.54,4.26,3.24,8a44.43,44.43,0,0,0-2.37,9.39c-.59,5.32.84,7.45,6,9.07,3.65,1.16,5.6,4.14,4.78,7.3-.9,3.43-4.07,5.15-7.91,4.29C312.45,75.61,307,68.65,307,57.84Z"/></g></g></svg>